<?xml version="1.0" encoding="utf-8"?>
<!-- Svg Vector Icons : http://www.onlinewebfonts.com/icon -->
<!DOCTYPE svg PUBLIC "-//W3C//DTD SVG 1.1//EN" "http://www.w3.org/Graphics/SVG/1.1/DTD/svg11.dtd">
<svg    width="128"
   height="128" ersion="1.1" xmlns="http://www.w3.org/2000/svg" xmlns:xlink="http://www.w3.org/1999/xlink" x="0px" y="0px" viewBox="0 0 1000 1000" enable-background="new 0 0 1000 1000" xml:space="preserve">
<metadata> Svg Vector Icons : http://www.onlinewebfonts.com/icon </metadata>
<g><g transform="translate(0.000000,511.000000) scale(0.100000,-0.100000)"><path d="M6189.6,4432.3c-6-26-30-168.2-56.1-320.4l-44.1-272.3l-90.1-24c-50.1-12-160.2-54.1-244.3-92.1l-154.2-72.1l-258.3,192.2l-258.3,190.2l-208.2-206.2l-208.2-208.2l170.2-236.3c94.1-132.2,176.2-248.3,184.2-262.3s-10-72.1-40-130.2c-30-58.1-76.1-164.2-100.1-236.3l-46-130.2l-296.4-46.1c-162.2-26-308.4-52.1-320.4-56.1c-20-4-26-82.1-26-296.3c0-282.3,0-288.3,46-298.3c24-6,166.2-30,318.4-56.1l272.3-44.1l24-90.1c12-50.1,54.1-160.2,92.1-244.3l72.1-154.2l-192.2-258.3l-190.2-258.3l206.2-208.2l208.2-208.2l236.3,170.2c132.2,94.1,248.3,176.2,260.3,182.2c14,8,100.1-22,194.2-66.1c94.1-44.1,200.2-86.1,234.3-92.1c34-8,68.1-24,72.1-38c6-14,30-160.2,54.1-322.4l46-298.3l292.4-6c288.3-4,292.3-4,302.3,40c6,26,30,168.2,56.1,320.4l44.1,272.3l90.1,24c50.1,12,160.2,54.1,244.3,92.1L7331,756l258.3-192.2l258.3-190.2l208.3,206.2L8264.1,788l-170.2,236.3c-94.1,132.2-176.2,248.3-182.2,260.3c-8,14,22,100.1,66.1,194.2c44.1,94.1,86.1,200.2,92.1,234.3c8,34,24,68.1,38.1,72.1c14,6,160.2,30,322.4,54.1l298.3,46.1l6,292.3c4,288.3,4,292.3-40,302.4c-26,6-168.2,30-320.4,56.1l-272.3,44.1l-24,90.1c-12,50.1-54.1,160.2-92.1,244.3l-72.1,154.2l192.2,258.3l190.2,258.3l-206.3,208.2l-208.2,208.2l-236.3-170.2c-132.2-94.1-248.3-176.2-262.3-184.2c-14-8-72.1,10-130.2,40c-58.1,30-164.2,76.1-236.3,100.1l-130.2,46l-46,296.4c-26,162.2-52.1,308.4-56.1,322.4c-4,18-82.1,24-296.4,24C6205.7,4476.3,6199.7,4476.3,6189.6,4432.3z M6640.2,3072.7c172.2-36,316.4-116.1,448.5-246.3c352.4-354.4,352.4-891,0-1245.5c-354.4-352.4-891-352.4-1245.5,0c-352.4,354.4-352.4,891,0,1245.5C6065.5,3046.7,6347.8,3134.8,6640.2,3072.7z"/><path d="M3506.5,1170.5L3296.3,812l-348.4-6l-346.4-4l-206.2,320.4c-114.1,176.2-214.3,332.4-224.3,348.4c-14,24-80.1,2-354.4-118.1c-184.2-80.1-342.4-152.2-350.4-158.2c-8-6,34-192.2,92.1-410.5l104.1-398.5l-204.2-202.2C1346,71.2,1241.9-40.9,1223.8-65l-30-48.1L795.3-28.9c-218.3,46-404.5,86.1-412.5,88.1c-20,2-296.4-692.8-282.3-708.8c6-6,166.2-102.1,354.4-212.2l344.4-202.3l4-298.3c2-164.2,8-320.4,10-346.4c6-42.1-36-76.1-338.4-270.3c-190.2-122.1-346.4-230.3-346.4-240.3c0-12,268.3-650.8,290.3-686.8c0-2,186.2,44.1,410.5,102.1l410.5,106.1l90.1-110.1c50.1-62.1,158.2-168.2,242.3-238.3c104.1-86.1,150.2-140.2,146.2-162.2c-68.1-282.3-162.2-776.9-152.2-786.9c8-6,166.2-72.1,352.4-146.2c262.3-104.1,342.4-128.1,354.4-108.1c10,14,104.1,176.2,212.3,358.4l194.2,332.4l270.3-2c150.2,0,304.4,6,344.4,14l72.1,14l224.3-350.4c124.1-192.2,232.3-350.4,240.3-350.4c44.1-2,682.8,292.3,682.8,314.4c0,14-44.1,198.2-100.1,406.5l-100.1,378.4l198.2,196.2c108.1,108.1,214.3,220.3,234.3,250.3l38,54.1l410.5-88.1c226.3-50.1,412.5-90.1,412.5-90.1c12,0,270.3,686.8,264.3,702.8c-4,12-162.2,114.1-352.4,224.3l-344.4,204.2l-6,346.4l-4,346.4l328.4,214.3c180.2,118.1,336.4,220.3,346.4,226.3c22,14-260.3,678.8-296.4,692.8c-12,4-196.2-36-408.5-92.1L4748-47l-172.2,176.2c-94.1,96.1-206.2,202.2-248.3,234.3l-78.1,60.1l88.1,408.5l90.1,410.5l-62.1,28c-34,14-194.2,78.1-356.4,142.2l-294.3,116.1L3506.5,1170.5z M3314.3-261.2c292.3-86.1,578.7-324.4,704.8-590.7c100.1-208.2,120.1-300.4,122.1-518.6c0-334.4-104.1-582.7-346.4-821c-250.3-248.3-528.6-354.4-873-334.4c-296.3,18-544.6,128.2-750.9,334.4c-352.4,352.4-436.5,875-216.3,1339.6c80.1,172.2,316.4,412.5,488.6,498.6c118.1,60.1,280.3,114.1,398.5,132.2C2943.8-207.2,3200.1-227.2,3314.3-261.2z"/><path d="M8302.1,143.3L8200-79l-186.2-24c-102.1-12-196.2-24-208.2-24c-14-2-92.1,84.1-176.2,188.2l-154.2,192.2L7319,167.3c-266.3-148.2-252.3-110.1-152.2-376.4l84.1-230.3l-86.1-98.1c-50.1-54-104.1-124.1-122.2-154.2c-40-66.1-46.1-68.1-326.4-36.1c-110.1,14-206.2,20-212.2,14c-12-12-130.1-422.5-122.1-428.5c2-2,104.1-48.1,224.3-104.1l220.3-100.1l12-136.2c6-76.1,18-170.2,26-208.3c14-70.1,12-72.1-178.2-218.3c-104.1-80.1-190.2-154.2-190.2-162.2c0-38,206.2-380.4,228.3-380.4c14,0,124.1,36,242.3,80.1l214.2,80.1l100.1-90.1c56.1-50.1,128.1-106.1,158.2-124.2c66.1-40,64.1-24,30-312.4c-14-118.1-18-220.3-8-226.2c8-6,106.1-36.1,216.3-66.1l204.2-58.1l98.1,212.2c54.1,114.1,98.1,216.3,98.1,224.3c0,8,66.1,20,146.2,26c78.1,8,176.2,18,214.3,24c68.1,10,74.1,6,218.3-180.2c82.1-104.1,152.2-190.2,158.2-190.2c8,0,362.4,198.2,382.5,214.3c4,2-30,108.1-76.1,234.3l-86.1,230.3l98.1,116.1c52.1,64.1,110.1,138.1,126.1,164.2c32,48,32,48,224.3,24c328.4-38,298.3-52.1,362.4,176.2c30,108.1,54.1,206.2,54.1,216.3c0,12-98.1,64.1-218.3,118.1l-218.2,98.1l-14,146.2c-8,82.1-22,174.2-30,204.2c-16,56.1-8,66.1,176.2,212.2c106.1,86.1,196.2,156.2,200.2,158.2c12,8-204.2,374.4-226.3,382.4c-14,6-120.1-26-240.3-70.1l-214.2-82.1l-94.1,76.1c-50.1,42.1-122.1,98.1-160.2,124.2l-68.1,46l12,144.2c8,80.1,18,194.2,26,254.3l12,108.1l-220.3,60.1l-220.3,60.1L8302.1,143.3z M8446.3-787.8c150.2-74.1,256.3-184.2,328.4-340.4c76.1-160.2,74.1-384.4,0-546.6c-70.1-150.2-196.2-282.3-334.4-350.4c-96.1-48-136.2-56.1-292.3-56.1c-154.2,0-196.2,8-292.3,52.1c-138.2,66.1-258.3,182.2-332.4,322.4c-50.1,96.1-56.1,126.1-56.1,306.3c0,172.2,6,212.2,48.1,290.4C7707.4-747.8,8093.9-613.6,8446.3-787.8z"/></g></g>
</svg>